<?xml version="1.0" encoding="utf-8"?>
<svg viewBox="56.6352 50.3941 112.674 72.729" xmlns="http://www.w3.org/2000/svg">
  <g transform="matrix(0.13404394686222076, 0, 0, 0.15085799992084503, 56.76924514770508, 47.258567810058594)" style="">
    <g/>
    <g style="transform-origin: 1204.35px 166.868px;" transform="matrix(0.675296, 0.006654, -0.009413, 0.754225, -952.015442, -78.088936)">
      <polygon style="stroke-width: 0px; stroke: rgb(255, 255, 255); fill: rgb(255, 255, 255);" points="1221.848 259.903 1169.795 120.81 1141.635 176.277 1042.648 176.277 1042.648 159.21 1131.395 159.21 1171.501 78.143 1221.848 212.117 1241.475 159.21 1349.848 159.21 1349.848 176.277 1253.421 176.277"/>
    </g>
    <path d="M485.4,502.6H24.6C10.093,502.6-1,491.507-1,477V306.333c0-14.507,11.093-25.6,25.6-25.6h460.8 c14.507,0,25.6,11.093,25.6,25.6V477C511,491.507,499.907,502.6,485.4,502.6z M24.6,297.8c-5.12,0-8.533,3.413-8.533,8.533V477 c0,5.12,3.413,8.533,8.533,8.533h460.8c5.12,0,8.533-3.413,8.533-8.533V306.333c0-5.12-3.413-8.533-8.533-8.533H24.6z" style="stroke: rgb(255, 255, 255); fill: rgb(255, 255, 255);"/>
    <path d="M109.933,297.8h-51.2c-5.12,0-8.533-3.413-8.533-8.533V195.4c0-5.12,3.413-8.533,8.533-8.533h51.2 c5.12,0,8.533,3.413,8.533,8.533v93.867C118.467,294.387,115.053,297.8,109.933,297.8z M67.267,280.733H101.4v-76.8H67.267V280.733 z" style="stroke: rgb(255, 255, 255); fill: rgb(255, 255, 255);"/>
    <path d="M451.267,297.8h-51.2c-5.12,0-8.533-3.413-8.533-8.533V195.4c0-5.12,3.413-8.533,8.533-8.533h51.2 c5.12,0,8.533,3.413,8.533,8.533v93.867C459.8,294.387,456.387,297.8,451.267,297.8z M408.6,280.733h34.133v-76.8H408.6V280.733z" style="stroke: rgb(255, 255, 255); fill: rgb(255, 255, 255);"/>
    <path d="M84.333,203.933c-5.12,0-8.533-3.413-8.533-8.533v-76.8c0-5.12,3.413-8.533,8.533-8.533s8.533,3.413,8.533,8.533v76.8 C92.867,200.52,89.453,203.933,84.333,203.933z" style="stroke: rgb(255, 255, 255); fill: rgb(255, 255, 255);"/>
    <path d="M84.333,127.133C65.56,127.133,50.2,111.773,50.2,93s15.36-34.133,34.133-34.133S118.467,74.227,118.467,93 S103.107,127.133,84.333,127.133z M84.333,75.933c-9.387,0-17.067,7.68-17.067,17.067s7.68,17.067,17.067,17.067 S101.4,102.387,101.4,93S93.72,75.933,84.333,75.933z" style="stroke: rgb(255, 255, 255); fill: rgb(255, 255, 255);"/>
    <path d="M425.667,203.933c-5.12,0-8.533-3.413-8.533-8.533v-76.8c0-5.12,3.413-8.533,8.533-8.533s8.533,3.413,8.533,8.533v76.8 C434.2,200.52,430.787,203.933,425.667,203.933z" style="stroke: rgb(255, 255, 255); fill: rgb(255, 255, 255);"/>
    <path d="M425.667,127.133c-18.773,0-34.133-15.36-34.133-34.133s15.36-34.133,34.133-34.133S459.8,74.227,459.8,93 S444.44,127.133,425.667,127.133z M425.667,75.933c-9.387,0-17.067,7.68-17.067,17.067s7.68,17.067,17.067,17.067 s17.067-7.68,17.067-17.067S435.053,75.933,425.667,75.933z" style="stroke: rgb(255, 255, 255); fill: rgb(255, 255, 255);"/>
    <path d="M468.333,459.933H331.8c-5.12,0-8.533-3.413-8.533-8.533s3.413-8.533,8.533-8.533h136.533c5.12,0,8.533,3.413,8.533,8.533 S473.453,459.933,468.333,459.933z" style="stroke: rgb(255, 255, 255); fill: rgb(255, 255, 255);"/>
    <path d="M468.333,425.8H331.8c-5.12,0-8.533-3.413-8.533-8.533s3.413-8.533,8.533-8.533h136.533c5.12,0,8.533,3.413,8.533,8.533 S473.453,425.8,468.333,425.8z" style="stroke: rgb(255, 255, 255); fill: rgb(255, 255, 255);"/>
    <path d="M357.4,391.667c-18.773,0-34.133-15.36-34.133-34.133S338.627,323.4,357.4,323.4s34.133,15.36,34.133,34.133 S376.173,391.667,357.4,391.667z M357.4,340.467c-9.387,0-17.067,7.68-17.067,17.067s7.68,17.067,17.067,17.067 s17.067-7.68,17.067-17.067S366.787,340.467,357.4,340.467z" style="stroke: rgb(255, 255, 255); fill: rgb(255, 255, 255);"/>
    <path d="M442.733,391.667c-18.773,0-34.133-15.36-34.133-34.133s15.36-34.133,34.133-34.133c18.773,0,34.133,15.36,34.133,34.133 S461.507,391.667,442.733,391.667z M442.733,340.467c-9.387,0-17.067,7.68-17.067,17.067s7.68,17.067,17.067,17.067 s17.067-7.68,17.067-17.067S452.12,340.467,442.733,340.467z" style="stroke: rgb(255, 255, 255); fill: rgb(255, 255, 255);"/>
    <path d="M357.4,391.667c-5.12,0-8.533-3.413-8.533-8.533v-17.067c0-5.12,3.413-8.533,8.533-8.533s8.533,3.413,8.533,8.533v17.067 C365.933,388.253,362.52,391.667,357.4,391.667z" style="stroke: rgb(255, 255, 255); fill: rgb(255, 255, 255);"/>
    <path d="M468.333,366.067h-17.067c-5.12,0-8.533-3.413-8.533-8.533s3.413-8.533,8.533-8.533h17.067c5.12,0,8.533,3.413,8.533,8.533 S473.453,366.067,468.333,366.067z" style="stroke: rgb(255, 255, 255); fill: rgb(255, 255, 255);"/>
    <path d="M289.133,459.933H50.2c-5.12,0-8.533-3.413-8.533-8.533c0-70.827,57.173-128,128-128s128,57.173,128,128 C297.667,456.52,294.253,459.933,289.133,459.933z M58.733,442.867H280.6c-4.267-57.173-52.053-102.4-110.933-102.4 S63.853,385.693,58.733,442.867z" style="stroke: rgb(255, 255, 255); fill: rgb(255, 255, 255);"/>
    <path d="M169.667,459.933c-1.707,0-4.267-0.853-5.973-1.707c-3.413-3.413-4.267-8.533-0.853-11.947l51.2-59.733 c3.413-3.413,8.533-4.267,11.947-0.853c3.413,3.413,4.267,8.533,0.853,11.947l-51.2,59.733 C174.787,459.08,172.227,459.933,169.667,459.933z" style="stroke: rgb(255, 255, 255); fill: rgb(255, 255, 255);"/>
    <g style="transform-origin: 682.462px 229.298px;" transform="matrix(0.596417, 0.003563, 0.009334, 0.552271, -27.083199, 59.034962)">
      <path style="stroke: rgb(255, 255, 255); fill: rgb(255, 255, 255);" d="M 620.273 224.286 L 684.938 224.212 L 683.884 229.946 L 668.59 229.354 L 651.672 341.715 L 623.829 342.379 L 622.682 348.637 L 607.888 348.472 L 607.581 341.946 L 586.427 342.056 L 620.273 224.286 Z"/>
      <path style="stroke: rgb(255, 255, 255); fill: rgb(255, 255, 255);" d="M 697.704 223.827 L 736.915 223.671 L 778.498 339.951 L 726.509 340.484 L 702.003 229.888 L 694.652 230.069 C 694.652 230.069 696.732 223.678 697.704 223.827 Z"/>
      <path style="stroke: rgb(255, 255, 255); fill: rgb(255, 255, 255);" d="M 628.699 217.089 L 654.126 109.959 L 679.758 110.216 L 678.345 117.211 L 665.307 117.559 L 661.648 217.164 L 628.699 217.089 Z"/>
      <path style="transform-box: fill-box; transform-origin: 50% 50%; stroke: rgb(255, 255, 255); fill: rgb(255, 255, 255);" d="M 682.46 110.089 L 707.886 217.219 L 733.519 216.963 L 732.106 209.967 L 719.067 209.619 L 717.696 172.286 L 734.169 171.576 L 733.91 158.966 L 717.095 155.926 L 715.409 110.014 L 682.46 110.089 Z" transform="matrix(-1, 0, 0, -1, 0.000006, 0.000002)"/>
    </g>
    <g style="transform-origin: 682.463px 229.298px;" transform="matrix(-0.404879, -0.38914, -0.465511, 0.366039, 62.675327, 165.948074)">
      <path style="stroke: rgb(255, 255, 255); fill: rgb(255, 255, 255);" d="M 620.273 224.286 L 684.938 224.212 L 683.884 229.946 L 668.59 229.354 L 651.672 341.715 L 623.829 342.379 L 622.682 348.637 L 607.888 348.472 L 607.581 341.946 L 586.427 342.056 L 620.273 224.286 Z"/>
      <path style="stroke: rgb(255, 255, 255); fill: rgb(255, 255, 255);" d="M 697.704 223.827 L 736.915 223.671 L 778.498 339.951 L 726.509 340.484 L 702.003 229.888 L 694.652 230.069 C 694.652 230.069 696.732 223.678 697.704 223.827 Z"/>
      <path style="stroke: rgb(255, 255, 255); fill: rgb(255, 255, 255);" d="M 628.699 217.089 L 654.126 109.959 L 679.758 110.216 L 678.345 117.211 L 665.307 117.559 L 661.648 217.164 L 628.699 217.089 Z"/>
      <path style="transform-box: fill-box; transform-origin: 50% 50%; stroke: rgb(255, 255, 255); fill: rgb(255, 255, 255);" d="M 682.46 110.089 L 707.886 217.219 L 733.519 216.963 L 732.106 209.967 L 719.067 209.619 L 717.696 172.286 L 734.169 171.576 L 733.91 158.966 L 717.095 155.926 L 715.409 110.014 L 682.46 110.089 Z" transform="matrix(-1, 0, 0, -1, 0.000006, 0.000002)"/>
    </g>
  </g>
  <path style="stroke: rgb(255, 255, 255); fill: none;" d="M 139.33 100.494 C 139.545 102.766 139.13 104.956 138.714 107.137 C 137.781 112.02 136.542 118.568 130.674 119.37 C 129.308 119.557 127.911 119.133 126.659 118.734 C 126.168 118.578 125.469 117.3 125.13 117.3"/>
  <path style="stroke: rgb(255, 255, 255); fill: none;" d="M 152.586 117.656 C 147.494 122.7 139.868 123.97 132.895 122.619 C 130.139 122.085 127.746 119.232 125.18 119.232"/>
</svg>