<?xml version="1.0" encoding="utf-8"?>
<svg viewBox="41.5792 49.9037 127.73 93.8034" xmlns="http://www.w3.org/2000/svg">
  <g transform="matrix(0.13404397666454315, 0, 0, 0.15085799992084503, 56.76924514770508, 47.258567810058594)" style="">
    <path style="fill:#FFE100;" d="M461.507,494.067H48.493c-8.533,0-15.36-7.68-15.36-17.067V306.333 c0-9.387,6.827-17.067,15.36-17.067h413.013c8.533,0,15.36,7.68,15.36,17.067V477C476.867,486.387,470.04,494.067,461.507,494.067"/>
    <path style="fill:#FFFFFF;" d="M33.133,477V306.333c0-9.387,6.827-17.067,15.36-17.067H24.6c-9.387,0-17.067,7.68-17.067,17.067 V477c0,9.387,7.68,17.067,17.067,17.067h23.893C39.96,494.067,33.133,486.387,33.133,477"/>
    <path style="fill:#FFA800;" d="M485.4,289.267h-23.893c8.533,0,15.36,7.68,15.36,17.067V477c0,9.387-6.827,17.067-15.36,17.067 H485.4c9.387,0,17.067-7.68,17.067-17.067V306.333C502.467,296.947,494.787,289.267,485.4,289.267"/>
    <path style="fill:#3DB9F9;" d="M169.667,331.933C103.96,331.933,50.2,385.693,50.2,451.4h238.933 C289.133,385.693,235.373,331.933,169.667,331.933"/>
    <path style="fill:#63D3FD;" d="M156.867,331.933c-58.88,0-106.667,53.76-106.667,119.467h213.333 C263.533,385.693,215.747,331.933,156.867,331.933"/>
    <g>
      <path style="fill:#FDCC00;" d="M383,357.533c0-14.507-11.093-25.6-25.6-25.6s-25.6,11.093-25.6,25.6s11.093,25.6,25.6,25.6 S383,372.04,383,357.533"/>
      <path style="fill:#FDCC00;" d="M468.333,357.533c0-14.507-11.093-25.6-25.6-25.6c-14.507,0-25.6,11.093-25.6,25.6 s11.093,25.6,25.6,25.6C457.24,383.133,468.333,372.04,468.333,357.533"/>
    </g>
    <polygon style="fill:#FFFFFF;" points="58.733,289.267 109.933,289.267 109.933,195.4 58.733,195.4 &#9;"/>
    <polygon style="fill:#FDCC00;" points="75.8,289.267 109.933,289.267 109.933,195.4 75.8,195.4 &#9;"/>
    <polygon style="fill:#FFA800;" points="400.067,289.267 451.267,289.267 451.267,195.4 400.067,195.4 &#9;"/>
    <polygon style="fill:#FDCC00;" points="400.067,289.267 434.2,289.267 434.2,195.4 400.067,195.4 &#9;"/>
    <g>
      <path style="fill:#FFE100;" d="M92.867,203.933c-5.12,0-8.533-3.413-8.533-8.533v-76.8c0-5.12,3.413-8.533,8.533-8.533 s8.533,3.413,8.533,8.533v76.8C101.4,200.52,97.987,203.933,92.867,203.933z"/>
      <path style="fill:#FFE100;" d="M434.2,203.933c-5.12,0-8.533-3.413-8.533-8.533v-76.8c0-5.12,3.413-8.533,8.533-8.533 c5.12,0,8.533,3.413,8.533,8.533v76.8C442.733,200.52,439.32,203.933,434.2,203.933z"/>
    </g>
    <path style="fill:#FFFFFF;" d="M109.933,93c0-14.507-11.093-25.6-25.6-25.6s-25.6,11.093-25.6,25.6s11.093,25.6,25.6,25.6 S109.933,107.507,109.933,93"/>
    <path style="fill:#FDCC00;" d="M109.933,93c0-14.507-7.68-25.6-17.067-25.6S75.8,78.493,75.8,93s7.68,25.6,17.067,25.6 S109.933,107.507,109.933,93"/>
    <path style="fill:#FFA800;" d="M400.067,93c0,14.507,11.093,25.6,25.6,25.6s25.6-11.093,25.6-25.6s-11.093-25.6-25.6-25.6 S400.067,78.493,400.067,93"/>
    <path style="fill:#FDCC00;" d="M400.067,93c0,14.507,7.68,25.6,17.067,25.6S434.2,107.507,434.2,93s-7.68-25.6-17.067-25.6 S400.067,78.493,400.067,93"/>
    <g style="transform-origin: 1204.35px 166.868px;" transform="matrix(0.675296, 0.006654, -0.009413, 0.754225, -952.015442, -78.088936)">
      <polygon style="fill: rgb(255, 225, 0); stroke-width: 28.0798px;" points="1221.848 259.903 1169.795 120.81 1141.635 176.277 1042.648 176.277 1042.648 159.21 1131.395 159.21 1171.501 78.143 1221.848 212.117 1241.475 159.21 1349.848 159.21 1349.848 176.277 1253.421 176.277"/>
      <path d="M 1229.515 255.593 L 1177.461 116.5 L 1149.301 171.967 L 1067.381 171.967 C 1062.261 171.967 1058.848 168.554 1058.848 163.434 C 1058.848 158.314 1062.261 154.901 1067.381 154.901 L 1139.061 154.901 L 1179.168 73.833 L 1229.515 207.806 L 1249.142 154.899 L 1357.515 154.899 C 1362.635 154.899 1366.048 158.312 1366.048 163.432 C 1366.048 168.552 1362.635 171.965 1357.515 171.965 L 1261.088 171.965 L 1229.515 255.593 Z"/>
    </g>
    <path d="M485.4,502.6H24.6C10.093,502.6-1,491.507-1,477V306.333c0-14.507,11.093-25.6,25.6-25.6h460.8 c14.507,0,25.6,11.093,25.6,25.6V477C511,491.507,499.907,502.6,485.4,502.6z M24.6,297.8c-5.12,0-8.533,3.413-8.533,8.533V477 c0,5.12,3.413,8.533,8.533,8.533h460.8c5.12,0,8.533-3.413,8.533-8.533V306.333c0-5.12-3.413-8.533-8.533-8.533H24.6z"/>
    <path d="M109.933,297.8h-51.2c-5.12,0-8.533-3.413-8.533-8.533V195.4c0-5.12,3.413-8.533,8.533-8.533h51.2 c5.12,0,8.533,3.413,8.533,8.533v93.867C118.467,294.387,115.053,297.8,109.933,297.8z M67.267,280.733H101.4v-76.8H67.267V280.733 z"/>
    <path d="M451.267,297.8h-51.2c-5.12,0-8.533-3.413-8.533-8.533V195.4c0-5.12,3.413-8.533,8.533-8.533h51.2 c5.12,0,8.533,3.413,8.533,8.533v93.867C459.8,294.387,456.387,297.8,451.267,297.8z M408.6,280.733h34.133v-76.8H408.6V280.733z"/>
    <path d="M84.333,203.933c-5.12,0-8.533-3.413-8.533-8.533v-76.8c0-5.12,3.413-8.533,8.533-8.533s8.533,3.413,8.533,8.533v76.8 C92.867,200.52,89.453,203.933,84.333,203.933z"/>
    <path d="M84.333,127.133C65.56,127.133,50.2,111.773,50.2,93s15.36-34.133,34.133-34.133S118.467,74.227,118.467,93 S103.107,127.133,84.333,127.133z M84.333,75.933c-9.387,0-17.067,7.68-17.067,17.067s7.68,17.067,17.067,17.067 S101.4,102.387,101.4,93S93.72,75.933,84.333,75.933z"/>
    <path d="M425.667,203.933c-5.12,0-8.533-3.413-8.533-8.533v-76.8c0-5.12,3.413-8.533,8.533-8.533s8.533,3.413,8.533,8.533v76.8 C434.2,200.52,430.787,203.933,425.667,203.933z"/>
    <path d="M425.667,127.133c-18.773,0-34.133-15.36-34.133-34.133s15.36-34.133,34.133-34.133S459.8,74.227,459.8,93 S444.44,127.133,425.667,127.133z M425.667,75.933c-9.387,0-17.067,7.68-17.067,17.067s7.68,17.067,17.067,17.067 s17.067-7.68,17.067-17.067S435.053,75.933,425.667,75.933z"/>
    <path d="M468.333,459.933H331.8c-5.12,0-8.533-3.413-8.533-8.533s3.413-8.533,8.533-8.533h136.533c5.12,0,8.533,3.413,8.533,8.533 S473.453,459.933,468.333,459.933z"/>
    <path d="M468.333,425.8H331.8c-5.12,0-8.533-3.413-8.533-8.533s3.413-8.533,8.533-8.533h136.533c5.12,0,8.533,3.413,8.533,8.533 S473.453,425.8,468.333,425.8z"/>
    <path d="M357.4,391.667c-18.773,0-34.133-15.36-34.133-34.133S338.627,323.4,357.4,323.4s34.133,15.36,34.133,34.133 S376.173,391.667,357.4,391.667z M357.4,340.467c-9.387,0-17.067,7.68-17.067,17.067s7.68,17.067,17.067,17.067 s17.067-7.68,17.067-17.067S366.787,340.467,357.4,340.467z"/>
    <path d="M442.733,391.667c-18.773,0-34.133-15.36-34.133-34.133s15.36-34.133,34.133-34.133c18.773,0,34.133,15.36,34.133,34.133 S461.507,391.667,442.733,391.667z M442.733,340.467c-9.387,0-17.067,7.68-17.067,17.067s7.68,17.067,17.067,17.067 s17.067-7.68,17.067-17.067S452.12,340.467,442.733,340.467z"/>
    <path d="M357.4,391.667c-5.12,0-8.533-3.413-8.533-8.533v-17.067c0-5.12,3.413-8.533,8.533-8.533s8.533,3.413,8.533,8.533v17.067 C365.933,388.253,362.52,391.667,357.4,391.667z"/>
    <path d="M468.333,366.067h-17.067c-5.12,0-8.533-3.413-8.533-8.533s3.413-8.533,8.533-8.533h17.067c5.12,0,8.533,3.413,8.533,8.533 S473.453,366.067,468.333,366.067z"/>
    <path d="M289.133,459.933H50.2c-5.12,0-8.533-3.413-8.533-8.533c0-70.827,57.173-128,128-128s128,57.173,128,128 C297.667,456.52,294.253,459.933,289.133,459.933z M58.733,442.867H280.6c-4.267-57.173-52.053-102.4-110.933-102.4 S63.853,385.693,58.733,442.867z"/>
    <path d="M169.667,459.933c-1.707,0-4.267-0.853-5.973-1.707c-3.413-3.413-4.267-8.533-0.853-11.947l51.2-59.733 c3.413-3.413,8.533-4.267,11.947-0.853c3.413,3.413,4.267,8.533,0.853,11.947l-51.2,59.733 C174.787,459.08,172.227,459.933,169.667,459.933z"/>
    <g style="transform-origin: 682.462px 229.298px;" transform="matrix(0.596417, 0.003563, 0.009334, 0.552271, -27.083199, 59.034962)">
      <path style="stroke: rgb(0, 0, 0);" d="M 620.273 224.286 L 684.938 224.212 L 683.884 229.946 L 668.59 229.354 L 651.672 341.715 L 623.829 342.379 L 622.682 348.637 L 607.888 348.472 L 607.581 341.946 L 586.427 342.056 L 620.273 224.286 Z"/>
      <path style="stroke: rgb(0, 0, 0);" d="M 697.704 223.827 L 736.915 223.671 L 778.498 339.951 L 726.509 340.484 L 702.003 229.888 L 694.652 230.069 C 694.652 230.069 696.732 223.678 697.704 223.827 Z"/>
      <path style="fill: rgb(216, 216, 216); stroke: rgb(0, 0, 0);" d="M 628.699 217.089 L 654.126 109.959 L 679.758 110.216 L 678.345 117.211 L 665.307 117.559 L 661.648 217.164 L 628.699 217.089 Z"/>
      <path style="fill: rgb(216, 216, 216); stroke: rgb(0, 0, 0); transform-box: fill-box; transform-origin: 50% 50%;" d="M 682.46 110.089 L 707.886 217.219 L 733.519 216.963 L 732.106 209.967 L 719.067 209.619 L 717.696 172.286 L 734.169 171.576 L 733.91 158.966 L 717.095 155.926 L 715.409 110.014 L 682.46 110.089 Z" transform="matrix(-1, 0, 0, -1, 0.000006, 0.000002)"/>
    </g>
    <g style="transform-origin: 682.463px 229.298px;" transform="matrix(-0.404879, -0.38914, -0.465511, 0.366039, 62.675327, 165.948074)">
      <path style="stroke: rgb(0, 0, 0); fill: rgb(196, 0, 0);" d="M 620.273 224.286 L 684.938 224.212 L 683.884 229.946 L 668.59 229.354 L 651.672 341.715 L 623.829 342.379 L 622.682 348.637 L 607.888 348.472 L 607.581 341.946 L 586.427 342.056 L 620.273 224.286 Z"/>
      <path style="stroke: rgb(0, 0, 0); fill: rgb(187, 0, 0);" d="M 697.704 223.827 L 736.915 223.671 L 778.498 339.951 L 726.509 340.484 L 702.003 229.888 L 694.652 230.069 C 694.652 230.069 696.732 223.678 697.704 223.827 Z"/>
      <path style="fill: rgb(216, 216, 216); stroke: rgb(0, 0, 0);" d="M 628.699 217.089 L 654.126 109.959 L 679.758 110.216 L 678.345 117.211 L 665.307 117.559 L 661.648 217.164 L 628.699 217.089 Z"/>
      <path style="fill: rgb(216, 216, 216); stroke: rgb(0, 0, 0); transform-box: fill-box; transform-origin: 50% 50%;" d="M 682.46 110.089 L 707.886 217.219 L 733.519 216.963 L 732.106 209.967 L 719.067 209.619 L 717.696 172.286 L 734.169 171.576 L 733.91 158.966 L 717.095 155.926 L 715.409 110.014 L 682.46 110.089 Z" transform="matrix(-1, 0, 0, -1, 0.000006, 0.000002)"/>
    </g>
  </g>
  <path d="M 301.99 113.582 C 304.239 113.582 305.661 112.105 305.661 109.787 L 305.661 103.77 L 304.598 103.77 L 304.598 109.773 C 304.598 111.498 303.577 112.602 302.004 112.602 C 300.803 112.602 299.947 111.981 299.451 110.711 L 298.485 111.112 C 299.05 112.685 300.334 113.582 301.99 113.582 Z" style="fill: rgb(255, 255, 255);" transform="matrix(1.698799, 0, 0, 1.912776, -465.087646, -81.719048)"/>
  <path d="M 308.619 113.512 C 309.151 113.512 309.584 113.324 309.903 112.956 L 309.903 113.43 L 310.508 113.43 L 310.508 109.334 L 309.903 109.334 L 309.903 112.343 C 309.657 112.751 309.265 112.98 308.774 112.98 C 308.071 112.98 307.63 112.531 307.63 111.803 L 307.63 109.334 L 307.033 109.334 L 307.033 111.926 C 307.033 112.866 307.679 113.512 308.619 113.512 Z M 311.533 113.43 L 312.138 113.43 L 312.138 110.38 C 312.391 109.988 312.743 109.783 313.184 109.783 C 313.83 109.783 314.239 110.233 314.239 110.961 L 314.239 113.43 L 314.836 113.43 L 314.836 110.838 C 314.836 110.699 314.819 110.577 314.795 110.454 C 315.056 110.012 315.433 109.783 315.882 109.783 C 316.536 109.783 316.945 110.233 316.945 110.961 L 316.945 113.43 L 317.542 113.43 L 317.542 110.838 C 317.542 109.898 316.929 109.252 316.038 109.252 C 315.441 109.252 314.966 109.497 314.631 109.996 C 314.378 109.538 313.912 109.252 313.339 109.252 C 312.849 109.252 312.448 109.432 312.138 109.783 L 312.138 109.334 L 311.533 109.334 Z M 318.547 115.098 L 319.152 115.098 L 319.152 113.021 C 319.52 113.324 319.978 113.495 320.46 113.495 C 321.629 113.495 322.529 112.572 322.529 111.378 C 322.529 110.192 321.629 109.268 320.468 109.268 C 319.953 109.268 319.495 109.44 319.144 109.775 L 319.144 109.334 L 318.547 109.334 Z M 320.411 112.964 C 319.904 112.964 319.438 112.751 319.152 112.4 L 319.152 110.372 C 319.438 110.012 319.896 109.8 320.411 109.8 C 321.27 109.8 321.932 110.487 321.932 111.386 C 321.932 112.285 321.278 112.964 320.411 112.964 Z M 324.675 113.512 C 325.616 113.512 326.335 112.972 326.335 112.261 C 326.335 111.623 325.926 111.255 325.109 111.141 L 324.397 111.043 C 323.858 110.969 323.637 110.789 323.637 110.421 C 323.637 110.021 324.021 109.743 324.585 109.743 C 325.035 109.743 325.452 109.89 325.91 110.2 L 326.229 109.792 C 325.722 109.424 325.215 109.252 324.618 109.252 C 323.719 109.252 323.081 109.759 323.081 110.446 C 323.081 111.083 323.473 111.451 324.291 111.566 L 325.002 111.664 C 325.526 111.738 325.763 111.934 325.763 112.294 C 325.763 112.727 325.305 113.029 324.651 113.029 C 324.168 113.029 323.694 112.833 323.318 112.482 L 322.95 112.874 C 323.383 113.283 323.997 113.512 324.675 113.512 Z M 328.545 113.512 C 328.783 113.512 329.052 113.479 329.265 113.405 L 329.265 112.874 C 329.061 112.956 328.897 112.98 328.668 112.98 C 328.218 112.98 328.039 112.809 328.039 112.367 L 328.039 109.849 L 329.273 109.849 L 329.273 109.334 L 328.039 109.334 L 328.039 108.14 L 327.442 108.295 L 327.442 109.334 L 326.559 109.334 L 326.559 109.849 L 327.442 109.849 L 327.442 112.522 C 327.442 113.168 327.834 113.512 328.545 113.512 Z M 331.207 113.504 C 331.722 113.504 332.163 113.348 332.531 113.029 L 332.531 113.43 L 333.12 113.43 L 333.12 110.675 C 333.12 109.759 332.539 109.252 331.501 109.252 C 331.002 109.252 330.52 109.375 329.931 109.661 L 330.16 110.127 C 330.651 109.873 331.043 109.767 331.444 109.767 C 332.155 109.767 332.531 110.102 332.531 110.756 L 332.531 111.296 C 332.18 111.116 331.763 111.018 331.329 111.018 C 330.324 111.018 329.694 111.5 329.694 112.269 C 329.694 113.005 330.307 113.504 331.207 113.504 Z M 330.275 112.253 C 330.275 111.77 330.692 111.46 331.346 111.46 C 331.82 111.46 332.196 111.558 332.531 111.787 L 332.531 112.555 C 332.204 112.882 331.804 113.029 331.313 113.029 C 330.7 113.029 330.275 112.711 330.275 112.253 Z M 334.131 113.43 L 334.736 113.43 L 334.736 110.626 C 334.948 110.078 335.332 109.783 335.839 109.783 C 335.978 109.783 336.117 109.808 336.264 109.857 L 336.264 109.301 C 336.142 109.26 336.036 109.244 335.88 109.244 C 335.381 109.244 334.981 109.489 334.736 109.914 L 334.736 109.334 L 334.131 109.334 Z M 338.575 113.512 C 338.812 113.512 339.081 113.479 339.294 113.405 L 339.294 112.874 C 339.09 112.956 338.926 112.98 338.697 112.98 C 338.248 112.98 338.068 112.809 338.068 112.367 L 338.068 109.849 L 339.302 109.849 L 339.302 109.334 L 338.068 109.334 L 338.068 108.14 L 337.471 108.295 L 337.471 109.334 L 336.588 109.334 L 336.588 109.849 L 337.471 109.849 L 337.471 112.522 C 337.471 113.168 337.863 113.512 338.575 113.512 Z M 341.779 113.504 C 342.368 113.504 342.85 113.34 343.308 112.997 L 342.932 112.596 C 342.654 112.833 342.229 112.972 341.804 112.972 C 340.994 112.972 340.356 112.375 340.267 111.566 L 343.627 111.566 L 343.627 111.378 C 343.627 110.2 342.777 109.268 341.689 109.268 C 340.561 109.268 339.67 110.2 339.67 111.378 C 339.67 112.58 340.594 113.504 341.779 113.504 Z M 340.283 111.083 C 340.397 110.331 340.962 109.8 341.673 109.8 C 342.351 109.8 342.916 110.356 343.022 111.083 Z M 344.471 113.43 L 345.076 113.43 L 345.076 110.626 C 345.288 110.078 345.672 109.783 346.179 109.783 C 346.318 109.783 346.457 109.808 346.605 109.857 L 346.605 109.301 C 346.482 109.26 346.376 109.244 346.22 109.244 C 345.722 109.244 345.321 109.489 345.076 109.914 L 345.076 109.334 L 344.471 109.334 Z" style="fill: rgb(255, 255, 255);" transform="matrix(1.698799, 0, 0, 1.912776, -465.087646, -81.719048)"/>
  <path style="fill: none; stroke: rgb(0, 0, 0);" d="M 139.33 100.494 C 139.545 102.766 139.13 104.956 138.714 107.137 C 137.781 112.02 136.542 118.568 130.674 119.37 C 129.308 119.557 127.911 119.133 126.659 118.734 C 126.168 118.578 125.469 117.3 125.13 117.3"/>
  <path style="fill: none; stroke: rgb(172, 8, 8);" d="M 152.586 117.656 C 147.494 122.7 139.868 123.97 132.895 122.619 C 130.139 122.085 127.746 119.232 125.18 119.232"/>
</svg>